<svg xmlns="http://www.w3.org/2000/svg" version="1.1" xmlns:xlink="http://www.w3.org/1999/xlink" xmlns:svgjs="http://svgjs.dev/svgjs" width="1000" height="1000" viewBox="0 0 1000 1000"><rect width="1000" height="1000" fill="#000000"></rect><g transform="matrix(0.7,0,0,0.7,149.57576432325368,422.24760380603163)"><svg viewBox="0 0 396 88" data-background-color="#63489a" preserveAspectRatio="xMidYMid meet" height="222" width="1000" xmlns="http://www.w3.org/2000/svg" xmlns:xlink="http://www.w3.org/1999/xlink"><g id="tight-bounds" transform="matrix(1,0,0,1,0.2399961828450614,0.029670946391348707)"><svg viewBox="0 0 395.52 87.94065810721732" height="87.94065810721732" width="395.52"><g><svg viewBox="0 0 576.1343059217625 128.0987814039863" height="87.94065810721732" width="395.52"><g transform="matrix(1,0,0,1,180.61430592176254,17.703956040637763)"><svg viewBox="0 0 395.52 92.69086932271077" height="92.69086932271077" width="395.52"><g id="textblocktransform"><svg viewBox="0 0 395.52 92.69086932271077" height="92.69086932271077" width="395.52" id="textblock"><g><svg viewBox="0 0 395.52 60.37145728643216" height="60.37145728643216" width="395.52"><g transform="matrix(1,0,0,1,0,0)"><svg width="395.52" viewBox="1.5 -36 238.7899932861328 36.45000076293945" height="60.37145728643216" data-palette-color="#fbfbf8"><g class="wordmark-text-0" data-fill-palette-color="primary" id="text-0"><path d="M27.05-0.38Q25.05 0.1 22.98 0.28 20.9 0.45 18.93 0.45 16.95 0.45 15.88 0.35 14.8 0.25 13.05-0.15 11.3-0.55 9.85-1.25 8.4-1.95 6.78-3.3 5.15-4.65 4.05-6.5L4.05-6.5Q1.5-10.8 1.5-17.6L1.5-17.6Q1.5-22.15 2.93-25.65 4.35-29.15 6.38-31.05 8.4-32.95 11-34.1L11-34.1Q15.2-36 19.45-36L19.45-36Q25.55-36 28.2-35L28.2-35Q29.4-34.55 30.35-33.6 31.3-32.65 31.3-30.85 31.3-29.05 30.43-26.3 29.55-23.55 27.9-23.55L27.9-23.55Q27.4-23.55 24.2-24.35 21-25.15 19.85-25.15L19.85-25.15Q18.1-25.15 16.88-23.2 15.65-21.25 15.65-17.65 15.65-14.05 16.73-12.05 17.8-10.05 19.55-10.05L19.55-10.05Q20.8-10.05 24.08-11.08 27.35-12.1 27.9-12.1L27.9-12.1Q29.45-12.1 30.33-9.25 31.2-6.4 31.2-4.65 31.2-2.9 30.13-1.88 29.05-0.85 27.05-0.38ZM48.75-1.45Q48.75-0.8 45.72-0.4 42.7 0 39.62 0 36.55 0 35.67-0.35 34.8-0.7 34.8-1.45L34.8-1.45 34.8-32.2Q34.8-33.45 37.7-34.48 40.6-35.5 44-35.5L44-35.5Q48.75-35.5 48.75-33.25L48.75-33.25 48.75-22.25 53.2-22.25 53.2-32.2Q53.2-33.45 56.12-34.48 59.05-35.5 62.45-35.5L62.45-35.5Q67.15-35.5 67.15-33.25L67.15-33.25 67.15-1.45Q67.15-0.8 64.1-0.4 61.05 0 58 0 54.95 0 54.07-0.35 53.2-0.7 53.2-1.45L53.2-1.45 53.2-12.9 48.75-12.9 48.75-1.45ZM84.95-2.55Q84.85-1.1 83.42-0.55 82 0 78.3 0 74.6 0 72.12-0.68 69.65-1.35 69.65-2.4L69.65-2.4Q69.65-3.6 74.1-17.73 78.55-31.85 79.2-34L79.2-34Q79.45-34.65 83.22-35.08 87-35.5 91.32-35.5 95.65-35.5 96.1-34L96.1-34Q105.55-2.6 105.55-2.1 105.55-1.6 104.95-1.1L104.95-1.1Q103.55 0 99.4 0L99.4 0Q90.55 0 90.35-2.1L90.35-2.1 90-5.35 85.2-5.35 84.95-2.55ZM86.25-14.85L88.95-14.85 88.2-23.85 87.1-23.85 86.25-14.85ZM130.59 0L112.24 0Q109.74 0 108.89-0.28 108.04-0.55 108.04-1.2L108.04-1.2 108.04-32.3Q108.04-33.4 110.94-34.48 113.84-35.55 117.44-35.55L117.44-35.55Q120.64-35.55 121.64-34.2L121.64-34.2Q121.99-33.7 121.99-33.2L121.99-33.2 121.99-11.05Q128.09-11.45 131.19-11.45L131.19-11.45Q132.24-11.45 132.24-8.13 132.24-4.8 131.79-2.4 131.34 0 130.59 0L130.59 0ZM149.19-1.55Q149.19-0.9 146.12-0.5 143.04-0.1 139.99-0.1 136.94-0.1 136.09-0.45 135.24-0.8 135.24-1.55L135.24-1.55 135.24-32.2Q135.24-33.5 138.06-34.5 140.89-35.5 144.59-35.5L144.59-35.5Q147.64-35.5 148.54-34.3L148.54-34.3Q149.19-33.45 149.19-32.75L149.19-32.75 149.19-24.5 149.59-24.5Q149.59-24.75 151.09-28.65L151.09-28.65Q153.94-36 155.24-36L155.24-36Q157.69-36 162.14-34.55L162.14-34.55Q164.29-33.85 165.84-32.52 167.39-31.2 167.39-29.6L167.39-29.6Q167.39-28.6 165.37-25.73 163.34-22.85 159.24-18.05L159.24-18.05Q160.19-17.05 161.64-15.5 163.09-13.95 165.52-10.88 167.94-7.8 167.94-6.5 167.94-5.2 165.59-3.48 163.24-1.75 160.59-0.68 157.94 0.4 156.64 0.4L156.64 0.4Q155.79 0.4 154.31-2.18 152.84-4.75 150.74-9.9L150.74-9.9 149.19-8.05 149.19-1.55ZM184.49-2.55Q184.39-1.1 182.96-0.55 181.54 0 177.84 0 174.14 0 171.66-0.68 169.19-1.35 169.19-2.4L169.19-2.4Q169.19-3.6 173.64-17.73 178.09-31.85 178.74-34L178.74-34Q178.99-34.65 182.76-35.08 186.54-35.5 190.86-35.5 195.19-35.5 195.64-34L195.64-34Q205.09-2.6 205.09-2.1 205.09-1.6 204.49-1.1L204.49-1.1Q203.09 0 198.94 0L198.94 0Q190.09 0 189.89-2.1L189.89-2.1 189.54-5.35 184.74-5.35 184.49-2.55ZM185.79-14.85L188.49-14.85 187.74-23.85 186.64-23.85 185.79-14.85ZM221.53-1.55Q221.53-0.9 218.46-0.5 215.39-0.1 212.34-0.1 209.28-0.1 208.44-0.45 207.59-0.8 207.59-1.55L207.59-1.55 207.59-32.2Q207.59-33.5 210.41-34.5 213.24-35.5 216.94-35.5L216.94-35.5Q219.99-35.5 220.89-34.3L220.89-34.3Q221.53-33.45 221.53-32.75L221.53-32.75 221.53-24.5 221.94-24.5Q221.94-24.75 223.44-28.65L223.44-28.65Q226.29-36 227.59-36L227.59-36Q230.04-36 234.49-34.55L234.49-34.55Q236.64-33.85 238.19-32.52 239.74-31.2 239.74-29.6L239.74-29.6Q239.74-28.6 237.71-25.73 235.69-22.85 231.59-18.05L231.59-18.05Q232.54-17.05 233.99-15.5 235.44-13.95 237.86-10.88 240.29-7.8 240.29-6.5 240.29-5.2 237.94-3.48 235.59-1.75 232.94-0.68 230.29 0.4 228.99 0.4L228.99 0.4Q228.14 0.4 226.66-2.18 225.19-4.75 223.09-9.9L223.09-9.9 221.53-8.05 221.53-1.55Z" fill="#ffffff" data-fill-palette-color="primary"></path></g></svg></g></svg></g><g transform="matrix(1,0,0,1,0,74.62370943678393)"><svg viewBox="0 0 232.209792 18.067159885926845" height="18.067159885926845" width="232.209792"><g transform="matrix(1,0,0,1,0,0)"><svg width="232.209792" viewBox="0.6600000262260437 -36.18000030517578 472.5199890136719 36.77000045776367" height="18.067159885926845" data-palette-color="#fbfbf8"><path d="M26.25-12.99L26.25-12.99Q26.25-9.64 25.09-7.14 23.93-4.64 21.91-2.98 19.9-1.32 17.2-0.49 14.5 0.34 11.4 0.34L11.4 0.34Q10.21 0.34 8.78 0.02 7.35-0.29 5.88-0.77 4.42-1.25 3.06-1.79 1.71-2.34 0.66-2.83L0.66-2.83 1.73-12.89Q3.81-11.65 6.34-11 8.86-10.35 11.3-10.35L11.3-10.35Q11.77-10.35 12.43-10.39 13.09-10.42 13.68-10.61 14.28-10.79 14.7-11.16 15.11-11.52 15.11-12.21L15.11-12.21Q15.11-12.67 14.82-13 14.53-13.33 14.06-13.54 13.6-13.75 13.01-13.85 12.43-13.96 11.87-14.01 11.3-14.06 10.82-14.06 10.33-14.06 10.03-14.06L10.03-14.06Q7.93-14.06 6.21-14.79 4.49-15.53 3.26-16.83 2.03-18.14 1.34-19.93 0.66-21.73 0.66-23.83L0.66-23.83Q0.66-26.71 1.82-28.99 2.98-31.27 4.92-32.87 6.86-34.47 9.38-35.33 11.89-36.18 14.58-36.18L14.58-36.18Q15.77-36.18 17.04-36.1 18.31-36.01 19.57-35.79 20.83-35.57 22.02-35.23 23.22-34.89 24.29-34.38L24.29-34.38 23.36-24.46Q21.7-25.02 19.89-25.4 18.07-25.78 16.33-25.78L16.33-25.78Q16.02-25.78 15.52-25.77 15.01-25.76 14.47-25.7 13.92-25.63 13.35-25.51 12.79-25.39 12.35-25.18 11.91-24.98 11.65-24.63 11.38-24.29 11.4-23.83L11.4-23.83Q11.43-23.29 11.8-22.96 12.18-22.63 12.78-22.45 13.38-22.27 14.1-22.19 14.82-22.12 15.53-22.11 16.24-22.09 16.85-22.11 17.46-22.12 17.85-22.07L17.85-22.07Q19.8-21.95 21.36-21.24 22.92-20.53 24.01-19.36 25.1-18.19 25.67-16.56 26.25-14.94 26.25-12.99ZM55.98-34.33L56.76-0.98 44.55-0.39 44.46-10.69 38.84-10.69 38.5 0 27.56 0 28.49-34.33 40.11-33.79 39.38-16.26 44.8-16.26 44.85-34.62 55.98-34.33ZM80.34-34.96L89.86-2.1 77.75-0.54 76.29-6.05 70.72-6.05 69.5-0.54 57.05-1.76 66.77-34.28 80.34-34.96ZM71.75-13.53L75.41-13.53 73.55-22.02 71.75-13.53ZM118.99-23.54L118.99-23.54Q118.99-21.63 118.66-20.08 118.33-18.53 117.62-17.24 116.91-15.94 115.79-14.84 114.67-13.75 113.08-12.74L113.08-12.74 118.89-2.39 107.9-0.24 104.14-10.64 101.12-10.55 100.68-0.39 90.18-0.39Q90.3-5.96 90.41-11.47 90.52-16.99 90.67-22.56L90.67-22.56Q90.72-25.37 90.76-28.13 90.81-30.88 90.96-33.69L90.96-33.69Q92.67-34.33 94.33-34.74 95.99-35.16 97.66-35.39 99.33-35.62 101.05-35.71 102.78-35.79 104.58-35.79L104.58-35.79Q107.37-35.79 109.97-35.02 112.57-34.25 114.57-32.71 116.57-31.18 117.78-28.88 118.99-26.59 118.99-23.54ZM108.05-22.75L108.05-22.75Q108.05-23.78 107.77-24.63 107.49-25.49 106.94-26.11 106.39-26.73 105.57-27.09 104.75-27.44 103.65-27.44L103.65-27.44Q103.17-27.44 102.7-27.38 102.24-27.32 101.8-27.2L101.8-27.2 101.41-18.12 101.99-18.12Q103.04-18.12 104.13-18.38 105.22-18.65 106.08-19.21 106.95-19.78 107.5-20.65 108.05-21.53 108.05-22.75ZM147.67-19.73L147.67-19.73Q147.67-17.6 147.38-15.48L147.38-15.48Q143.2-15.21 139.08-14.61 134.95-14.01 130.82-13.43L130.82-13.43Q131.46-11.67 132.81-10.62 134.17-9.57 136.05-9.57L136.05-9.57Q137.03-9.57 138.19-9.94 139.35-10.3 140.49-10.85 141.64-11.4 142.69-12.04 143.74-12.67 144.5-13.18L144.5-13.18 143.32-2.1Q142.37-1.37 141.26-0.85 140.15-0.34 138.95-0.02 137.76 0.29 136.54 0.44 135.32 0.59 134.15 0.59L134.15 0.59Q131.73 0.59 129.73-0.07 127.72-0.73 126.1-1.92 124.48-3.1 123.26-4.71 122.04-6.32 121.23-8.23 120.42-10.13 120.01-12.26 119.59-14.38 119.59-16.55L119.59-16.55Q119.59-18.82 120.01-21.09 120.42-23.36 121.27-25.46 122.11-27.56 123.39-29.36 124.67-31.15 126.38-32.5 128.09-33.84 130.25-34.59 132.41-35.35 135.02-35.35L135.02-35.35Q137.2-35.35 138.99-34.75 140.79-34.16 142.19-33.09 143.59-32.03 144.63-30.57 145.67-29.1 146.34-27.36 147.01-25.61 147.34-23.67 147.67-21.73 147.67-19.73ZM137.91-20.46L137.91-21Q137.91-21.68 137.76-22.4 137.61-23.12 137.28-23.71 136.95-24.29 136.42-24.67 135.88-25.05 135.07-25.05L135.07-25.05Q134.1-25.05 133.35-24.52 132.61-24 132.07-23.21 131.53-22.41 131.19-21.48 130.85-20.56 130.68-19.78L130.68-19.78 137.91-20.46ZM177.4-33.89L189.12-33.06 177.65-14.31 177.99-0.49 165.44-0.49 165.73-14.21 156.8-32.32 169.25-33.89 173.15-23.34 177.4-33.89ZM216.8-18.7L216.8-18.7Q216.8-16.48 216.29-14.42 215.78-12.35 214.81-10.55 213.85-8.74 212.47-7.24 211.09-5.74 209.37-4.66 207.65-3.59 205.62-2.99 203.6-2.39 201.33-2.39L201.33-2.39Q199.13-2.39 197.14-2.95 195.15-3.52 193.42-4.53 191.68-5.54 190.28-6.97 188.87-8.4 187.89-10.14 186.9-11.89 186.35-13.89 185.8-15.89 185.8-18.07L185.8-18.07Q185.8-20.19 186.31-22.23 186.82-24.27 187.79-26.07 188.75-27.88 190.12-29.39 191.49-30.91 193.18-32.01 194.88-33.11 196.86-33.72 198.84-34.33 201.03-34.33L201.03-34.33Q204.57-34.33 207.49-33.23 210.41-32.13 212.47-30.09 214.53-28.05 215.67-25.16 216.8-22.27 216.8-18.7ZM205.96-18.07L205.96-18.07Q205.96-19.12 205.66-20.1 205.35-21.09 204.77-21.86 204.18-22.63 203.32-23.11 202.45-23.58 201.33-23.58L201.33-23.58Q200.18-23.58 199.27-23.17 198.37-22.75 197.72-22.03 197.08-21.31 196.74-20.35 196.39-19.38 196.39-18.31L196.39-18.31Q196.39-17.29 196.69-16.26 196.98-15.23 197.57-14.4 198.15-13.57 199.02-13.06 199.88-12.55 201.03-12.55L201.03-12.55Q202.18-12.55 203.1-13 204.01-13.45 204.65-14.22 205.28-14.99 205.62-15.99 205.96-16.99 205.96-18.07ZM247.61-34.38L247.61-34.38Q246.51-25.78 245.73-17.27 244.95-8.76 244.24-0.15L244.24-0.15 234.23 0.59 234.67-3.17Q234.18-2.61 233.54-2.2 232.89-1.78 232.16-1.53 231.43-1.27 230.64-1.16 229.86-1.05 229.15-1.07L229.15-1.07Q227.49-1.1 226.03-1.72 224.56-2.34 223.34-3.38 222.12-4.42 221.15-5.8 220.17-7.18 219.5-8.7 218.83-10.23 218.47-11.82 218.12-13.4 218.12-14.89L218.12-14.89Q218.12-17.09 218.21-19.45 218.29-21.8 218.51-24.17 218.73-26.54 219.08-28.86 219.44-31.18 219.98-33.3L219.98-33.3Q222.95-33.15 225.96-33.03 228.96-32.91 231.94-32.96L231.94-32.96Q231.38-30.83 230.83-28.7 230.28-26.56 229.84-24.4 229.4-22.24 229.13-20.07 228.86-17.9 228.86-15.67L228.86-15.67Q228.86-15.16 228.91-14.21 228.96-13.26 229.17-12.33 229.37-11.4 229.8-10.71 230.23-10.01 231.01-10.01L231.01-10.01Q231.94-10.01 232.67-10.8 233.4-11.6 233.96-12.94 234.53-14.28 234.93-16.04 235.33-17.8 235.61-19.71 235.89-21.63 236.06-23.58 236.23-25.54 236.32-27.26 236.41-28.98 236.44-30.35 236.48-31.71 236.48-32.47L236.48-32.47Q236.48-32.96 236.45-33.42 236.43-33.89 236.38-34.38L236.38-34.38Q237.97-34.33 239.53-34.3 241.09-34.28 242.68-34.28L242.68-34.28Q243.9-34.28 245.13-34.29 246.37-34.3 247.61-34.38ZM277.69-23.54L277.69-23.54Q277.69-21.63 277.36-20.08 277.03-18.53 276.32-17.24 275.61-15.94 274.49-14.84 273.37-13.75 271.78-12.74L271.78-12.74 277.59-2.39 266.6-0.24 262.84-10.64 259.82-10.55 259.38-0.39 248.88-0.39Q249-5.96 249.11-11.47 249.22-16.99 249.37-22.56L249.37-22.56Q249.42-25.37 249.46-28.13 249.51-30.88 249.66-33.69L249.66-33.69Q251.37-34.33 253.03-34.74 254.69-35.16 256.36-35.39 258.03-35.62 259.76-35.71 261.48-35.79 263.28-35.79L263.28-35.79Q266.07-35.79 268.67-35.02 271.27-34.25 273.27-32.71 275.27-31.18 276.48-28.88 277.69-26.59 277.69-23.54ZM266.75-22.75L266.75-22.75Q266.75-23.78 266.47-24.63 266.19-25.49 265.64-26.11 265.09-26.73 264.27-27.09 263.45-27.44 262.36-27.44L262.36-27.44Q261.87-27.44 261.4-27.38 260.94-27.32 260.5-27.2L260.5-27.2 260.11-18.12 260.7-18.12Q261.75-18.12 262.83-18.38 263.92-18.65 264.78-19.21 265.65-19.78 266.2-20.65 266.75-21.53 266.75-22.75ZM310.4-34.96L319.92-2.1 307.81-0.54 306.34-6.05 300.78-6.05 299.56-0.54 287.11-1.76 296.82-34.28 310.4-34.96ZM301.8-13.53L305.47-13.53 303.61-22.02 301.8-13.53ZM331.93-12.94L341.84-12.94 340.81-2.1 320.26-0.49 321.04-35.35 333.73-35.35 331.93-12.94ZM371.4-8.69L371.4-8.69Q371.4-6.67 370.66-5.2 369.91-3.74 368.67-2.71 367.42-1.68 365.8-1.04 364.18-0.39 362.42-0.02 360.66 0.34 358.89 0.46 357.12 0.59 355.58 0.59L355.58 0.59Q354.07 0.59 352.45 0.48 350.82 0.37 349.21 0.1 347.6-0.17 346.04-0.62 344.47-1.07 343.08-1.76L343.08-1.76 343.03-33.2Q344.4-33.76 345.94-34.22 347.48-34.67 349.08-34.97 350.68-35.28 352.26-35.44 353.85-35.6 355.34-35.6L355.34-35.6Q357.07-35.6 358.84-35.38 360.61-35.16 362.25-34.64 363.88-34.13 365.3-33.31 366.72-32.5 367.78-31.3 368.84-30.1 369.44-28.52 370.04-26.93 370.04-24.85L370.04-24.85Q370.04-23.49 369.65-22.29 369.25-21.09 368.52-20.14 367.79-19.19 366.74-18.52 365.69-17.85 364.37-17.53L364.37-17.53Q365.96-17.11 367.26-16.31 368.57-15.5 369.49-14.36 370.4-13.21 370.9-11.77 371.4-10.33 371.4-8.69ZM359-22.61L359-22.61Q359-23.32 358.71-23.82 358.41-24.32 357.99-24.63 357.56-24.95 357.06-25.1 356.56-25.24 356.17-25.24L356.17-25.24Q355.68-25.24 355.22-25.1 354.75-24.95 354.31-24.76L354.31-24.76 354.17-19.34Q354.73-19.34 355.56-19.43 356.39-19.53 357.16-19.86 357.93-20.19 358.46-20.84 359-21.48 359-22.61ZM355.53-14.65L355.53-14.65Q354.83-14.65 354.17-14.5L354.17-14.5 354.07-8.94Q354.44-8.86 354.79-8.8 355.14-8.74 355.49-8.74L355.49-8.74Q356-8.74 356.61-8.85 357.22-8.96 357.76-9.29 358.29-9.62 358.65-10.18 359-10.74 359-11.67L359-11.67Q359-12.6 358.65-13.18 358.29-13.77 357.78-14.1 357.27-14.43 356.66-14.54 356.05-14.65 355.53-14.65ZM401.8-34.38L401.8-34.38Q400.7-25.78 399.92-17.27 399.13-8.76 398.43-0.15L398.43-0.15 388.42 0.59 388.86-3.17Q388.37-2.61 387.72-2.2 387.07-1.78 386.34-1.53 385.61-1.27 384.83-1.16 384.05-1.05 383.34-1.07L383.34-1.07Q381.68-1.1 380.21-1.72 378.75-2.34 377.53-3.38 376.31-4.42 375.33-5.8 374.35-7.18 373.68-8.7 373.01-10.23 372.66-11.82 372.3-13.4 372.3-14.89L372.3-14.89Q372.3-17.09 372.39-19.45 372.47-21.8 372.69-24.17 372.91-26.54 373.27-28.86 373.62-31.18 374.16-33.3L374.16-33.3Q377.14-33.15 380.14-33.03 383.14-32.91 386.12-32.96L386.12-32.96Q385.56-30.83 385.01-28.7 384.46-26.56 384.02-24.4 383.58-22.24 383.31-20.07 383.05-17.9 383.05-15.67L383.05-15.67Q383.05-15.16 383.09-14.21 383.14-13.26 383.35-12.33 383.56-11.4 383.99-10.71 384.41-10.01 385.19-10.01L385.19-10.01Q386.12-10.01 386.85-10.8 387.59-11.6 388.15-12.94 388.71-14.28 389.11-16.04 389.52-17.8 389.8-19.71 390.08-21.63 390.25-23.58 390.42-25.54 390.5-27.26 390.59-28.98 390.63-30.35 390.66-31.71 390.66-32.47L390.66-32.47Q390.66-32.96 390.64-33.42 390.61-33.89 390.57-34.38L390.57-34.38Q392.15-34.33 393.72-34.3 395.28-34.28 396.86-34.28L396.86-34.28Q398.09-34.28 399.32-34.29 400.55-34.3 401.8-34.38ZM445.93-16.55L445.93-16.55Q445.93-13.06 445.71-9.59 445.49-6.13 445.2-2.64L445.2-2.64 432.65-2.05Q433.21-6.3 433.67-10.56 434.12-14.82 434.12-19.09L434.12-19.09Q434.12-19.36 434.09-20.03 434.07-20.7 434.01-21.56 433.95-22.41 433.84-23.33 433.73-24.24 433.54-25.01 433.36-25.78 433.09-26.27 432.82-26.76 432.46-26.76L432.46-26.76Q431.6-26.76 431.11-26.11 430.63-25.46 430.39-24.56 430.16-23.66 430.11-22.72 430.07-21.78 430.07-21.19L430.07-21.19Q430.07-20.17 430.11-19.14 430.16-18.12 430.16-17.04L430.16-17.04Q430.16-13.26 429.98-9.5 429.8-5.74 429.53-1.95L429.53-1.95 417.96-1.51Q418.52-5.76 418.94-10 419.37-14.23 419.37-18.51L419.37-18.51Q419.37-18.77 419.35-19.48 419.32-20.19 419.26-21.07 419.2-21.95 419.08-22.9 418.96-23.85 418.77-24.65 418.59-25.44 418.32-25.95 418.05-26.46 417.66-26.46L417.66-26.46Q417.05-26.46 416.64-25.99 416.22-25.51 415.97-24.76 415.71-24 415.58-23.08 415.44-22.17 415.38-21.29 415.32-20.41 415.31-19.67 415.29-18.92 415.27-18.55L415.27-18.55 414.73-0.73 402.43-0.73Q402.82-4.86 403.22-9.01 403.62-13.16 403.93-17.3 404.23-21.44 404.43-25.59 404.63-29.74 404.63-33.89L404.63-33.89 416.25-34.38 416.2-31.54Q416.73-32.23 417.42-32.92 418.1-33.62 418.87-34.17 419.64-34.72 420.51-35.06 421.37-35.4 422.3-35.4L422.3-35.4Q423.5-35.4 424.45-35.22 425.4-35.03 426.17-34.59 426.94-34.16 427.53-33.39 428.11-32.62 428.55-31.45L428.55-31.45Q429.33-32.3 430.13-33.03 430.92-33.76 431.8-34.29 432.68-34.81 433.7-35.11 434.73-35.4 435.97-35.4L435.97-35.4Q438.34-35.4 440-34.48 441.66-33.57 442.77-32.06 443.88-30.54 444.51-28.59 445.13-26.64 445.45-24.54 445.76-22.44 445.85-20.36 445.93-18.29 445.93-16.55ZM473.18-12.5L473.18-12.5Q473.18-9.16 472.02-6.73 470.86-4.3 468.84-2.72 466.83-1.15 464.13-0.4 461.43 0.34 458.33 0.34L458.33 0.34Q457.14 0.34 455.71 0.02 454.28-0.29 452.82-0.77 451.35-1.25 450-1.79 448.64-2.34 447.59-2.83L447.59-2.83 448.67-12.4Q450.74-11.16 453.27-10.51 455.79-9.86 458.24-9.86L458.24-9.86Q458.7-9.86 459.36-9.9 460.02-9.94 460.62-10.12 461.21-10.3 461.63-10.67 462.04-11.04 462.04-11.72L462.04-11.72Q462.04-12.18 461.75-12.51 461.46-12.84 461-13.05 460.53-13.26 459.95-13.37 459.36-13.48 458.8-13.53 458.24-13.57 457.75-13.57 457.26-13.57 456.97-13.57L456.97-13.57Q454.87-13.57 453.15-14.23 451.42-14.89 450.19-16.1 448.96-17.31 448.28-19.03 447.59-20.75 447.59-22.85L447.59-22.85Q447.59-25.73 448.75-28.02 449.91-30.3 451.85-31.9 453.79-33.5 456.31-34.35 458.82-35.21 461.51-35.21L461.51-35.21Q462.7-35.21 463.97-35.12 465.24-35.03 466.5-34.81 467.76-34.59 468.95-34.25 470.15-33.91 471.22-33.4L471.22-33.4 470.3-23.49Q468.64-24.05 466.82-24.43 465-24.8 463.27-24.8L463.27-24.8Q462.95-24.8 462.45-24.79 461.95-24.78 461.4-24.72 460.85-24.66 460.29-24.54 459.73-24.41 459.29-24.21 458.85-24 458.58-23.66 458.31-23.32 458.33-22.85L458.33-22.85Q458.36-22.31 458.74-22.02 459.12-21.73 459.71-21.59 460.31-21.46 461.03-21.46 461.75-21.46 462.46-21.5 463.17-21.53 463.78-21.57 464.39-21.61 464.78-21.58L464.78-21.58Q466.73-21.46 468.29-20.75 469.86-20.04 470.94-18.87 472.03-17.7 472.6-16.08 473.18-14.45 473.18-12.5Z" opacity="1" transform="matrix(1,0,0,1,0,0)" fill="#ffffff" class="slogan-text-1" data-fill-palette-color="secondary" id="text-1"></path></svg></g></svg></g></svg></g></svg></g><g><svg viewBox="0 0 166.36205377141079 128.0987814039863" height="128.0987814039863" width="166.36205377141079"><g><svg version="1.1" xmlns="http://www.w3.org/2000/svg" xmlns:xlink="http://www.w3.org/1999/xlink" x="0" y="0" viewBox="0 0 100 77" enable-background="new 0 0 100 77" xml:space="preserve" height="128.0987814039863" width="166.36205377141079" class="icon-icon-0" data-fill-palette-color="accent" id="icon-0"><path d="M50 32c-7.168 0-13 5.832-13 13 0 7.168 5.832 13 13 13s13-5.832 13-13C63 37.832 57.168 32 50 32z" fill="#ffffff" data-fill-palette-color="accent"></path><path d="M87 13H72c0-7.18-5.82-13-13-13H41c-7.18 0-13 5.82-13 13H13C5.82 13 0 18.82 0 26v38c0 7.18 5.82 13 13 13h74c7.18 0 13-5.82 13-13V26C100 18.82 94.18 13 87 13zM50 68c-12.683 0-23-10.318-23-23 0-12.682 10.317-23 23-23s23 10.318 23 23C73 57.682 62.683 68 50 68z" fill="#ffffff" data-fill-palette-color="accent"></path></svg></g></svg></g></svg></g><defs></defs></svg><rect width="395.52" height="87.94065810721732" fill="none" stroke="none" visibility="hidden"></rect></g></svg></g></svg>